# xmcd
#
# Track frame offsets: 
#        150
#        39774
#        93118
#        133226
#        176789
#        210563
#        242874
#
# Disc length: 3885 seconds
#
# Revision: 0
# Processed by: cddbd v1.5.2PL0 Copyright (c) Steve Scherf et al.
# Submitted via: ExactAudioCopy v1.3
#
DISCID=590f2b07
DTITLE=Live at AKASAKA Bb, TOKYO - 野口茜
DYEAR=2017
DGENRE=Jazz
TTITLE0=My Romance
TTITLE1=La Fiesta
TTITLE2=Star Bridge
TTITLE3=Moon Cycle
TTITLE4=赤とんぼ
TTITLE5=雨のち晴れ
TTITLE6=Mercy, Mercy, Mercy
EXTD=
EXTT0=
EXTT1=
EXTT2=
EXTT3=
EXTT4=
EXTT5=
EXTT6=
PLAYORDER=
